<svg width="19" height="16" viewBox="0 0 19 16" fill="none" xmlns="http://www.w3.org/2000/svg">
<g filter="url(#filter0_d_0_122)">
<mask id="path-1-outside-1_0_122" maskUnits="userSpaceOnUse" x="2" y="1.06604" width="15" height="12" fill="black">
<rect fill="white" x="2" y="1.06604" width="15" height="12"/>
<path fill-rule="evenodd" clip-rule="evenodd" d="M7.99976 12C7.99976 12 5.79399 10.3013 5.01798 9.00002C4.24196 7.69876 2.77145 6.04103 3.03012 5.00002C3.2888 3.95901 4.24196 3.63094 5.01798 4.41169C5.79399 5.19245 6.31674 6.88409 6.83408 6.62384C7.35143 6.36358 7.35143 5.43141 6.83408 4.00002C6.31674 2.56863 6.23646 3.00002 7.29318 3.00002C8.34989 3.00002 7.99976 2.21059 8.49672 3.71059C8.99368 5.21059 8.10871 4.00002 8.49672 4.00002C8.88473 4.00002 9.03279 3.65065 9.03279 3.00002C9.03279 2.82321 9.06725 2.67377 9.13721 2.54988C9.32468 2.2179 9.76709 2.06942 10.4846 2.06942C11.4698 2.06942 10.9815 4.00002 11.4785 4.00002C11.9755 4.00002 11.9755 4.04103 11.9755 3.00002C11.9755 1.95901 12.4363 2.06942 13.4302 2.06942C14.4241 2.06942 13.9429 4.00002 14.4603 4.00002C14.9776 4.00002 14.4603 3.00002 14.9572 3.00002C15.4542 3.00002 15.9512 3.15775 15.9512 5.50002C15.9512 7.84229 16.2302 7.95901 15.4542 9.00002C14.6782 10.041 13.9633 11 13.9633 11C13.9633 11 13.9633 12 13.4302 12C12.8971 12 12.6221 11 11.9755 11C11.3288 11 10.9815 12 10.9815 12H7.99976ZM13.9633 10V6.00002H12.9694V10H13.9633ZM10.9815 9.00002C10.9815 9.2709 11.2121 10 11.4785 10C11.753 10 11.9755 9.27544 11.9755 9.00002V7.00002C11.9755 6.72914 11.7449 6.00002 11.4785 6.00002C11.204 6.00002 10.9815 6.7246 10.9815 7.00002V9.00002ZM8.99368 9.00002C8.99368 9.2709 9.22421 10 9.49064 10C9.76511 10 9.98761 9.27544 9.98761 9.00002V7.00002C9.98761 6.72914 9.75708 6.00002 9.49064 6.00002C9.21618 6.00002 8.99368 6.7246 8.99368 7.00002V9.00002Z"/>
</mask>
<path fill-rule="evenodd" clip-rule="evenodd" d="M7.99976 12C7.99976 12 5.79399 10.3013 5.01798 9.00002C4.24196 7.69876 2.77145 6.04103 3.03012 5.00002C3.2888 3.95901 4.24196 3.63094 5.01798 4.41169C5.79399 5.19245 6.31674 6.88409 6.83408 6.62384C7.35143 6.36358 7.35143 5.43141 6.83408 4.00002C6.31674 2.56863 6.23646 3.00002 7.29318 3.00002C8.34989 3.00002 7.99976 2.21059 8.49672 3.71059C8.99368 5.21059 8.10871 4.00002 8.49672 4.00002C8.88473 4.00002 9.03279 3.65065 9.03279 3.00002C9.03279 2.82321 9.06725 2.67377 9.13721 2.54988C9.32468 2.2179 9.76709 2.06942 10.4846 2.06942C11.4698 2.06942 10.9815 4.00002 11.4785 4.00002C11.9755 4.00002 11.9755 4.04103 11.9755 3.00002C11.9755 1.95901 12.4363 2.06942 13.4302 2.06942C14.4241 2.06942 13.9429 4.00002 14.4603 4.00002C14.9776 4.00002 14.4603 3.00002 14.9572 3.00002C15.4542 3.00002 15.9512 3.15775 15.9512 5.50002C15.9512 7.84229 16.2302 7.95901 15.4542 9.00002C14.6782 10.041 13.9633 11 13.9633 11C13.9633 11 13.9633 12 13.4302 12C12.8971 12 12.6221 11 11.9755 11C11.3288 11 10.9815 12 10.9815 12H7.99976ZM13.9633 10V6.00002H12.9694V10H13.9633ZM10.9815 9.00002C10.9815 9.2709 11.2121 10 11.4785 10C11.753 10 11.9755 9.27544 11.9755 9.00002V7.00002C11.9755 6.72914 11.7449 6.00002 11.4785 6.00002C11.204 6.00002 10.9815 6.7246 10.9815 7.00002V9.00002ZM8.99368 9.00002C8.99368 9.2709 9.22421 10 9.49064 10C9.76511 10 9.98761 9.27544 9.98761 9.00002V7.00002C9.98761 6.72914 9.75708 6.00002 9.49064 6.00002C9.21618 6.00002 8.99368 6.7246 8.99368 7.00002V9.00002Z" fill="white"/>
<path d="M7.99976 12L7.38959 12.7923L7.65932 13H7.99976V12ZM3.03012 5.00002L4.00061 5.24117L3.03012 5.00002ZM5.01798 4.41169L4.30872 5.11664H4.30872L5.01798 4.41169ZM6.83408 6.62384L6.38469 5.7305H6.38469L6.83408 6.62384ZM6.83408 4.00002L7.77454 3.66011L6.83408 4.00002ZM7.29318 3.00002V2.00002V3.00002ZM8.49672 4.00002L8.49672 5.00002H8.49672L8.49672 4.00002ZM9.03279 3.00002L8.03279 3.00002L9.03279 3.00002ZM9.13721 2.54988L8.26645 2.05816V2.05816L9.13721 2.54988ZM10.4846 2.06942V1.06942V2.06942ZM11.4785 4.00002V3.00002V4.00002ZM11.9755 3.00002L10.9755 3.00002L11.9755 3.00002ZM13.4302 2.06942V1.06942V2.06942ZM14.4603 4.00002V5.00002V4.00002ZM14.9572 3.00002V2.00002V3.00002ZM15.9512 5.50002L14.9512 5.50002L15.9512 5.50002ZM15.4542 9.00002L16.256 9.59768L15.4542 9.00002ZM13.9633 11L13.1616 10.4024L12.9633 10.6683V11H13.9633ZM13.4302 12V11V12ZM11.9755 11V10V11ZM10.9815 12V13H11.6929L11.9262 12.3281L10.9815 12ZM13.9633 10V11H14.9633V10H13.9633ZM13.9633 6.00002H14.9633V5.00002H13.9633V6.00002ZM12.9694 6.00002V5.00002H11.9694V6.00002H12.9694ZM12.9694 10H11.9694V11H12.9694V10ZM7.99976 12C8.60992 11.2077 8.60999 11.2078 8.61005 11.2078C8.61006 11.2079 8.61011 11.2079 8.61013 11.2079C8.61016 11.2079 8.61017 11.2079 8.61014 11.2079C8.61008 11.2079 8.60989 11.2077 8.60957 11.2075C8.60893 11.207 8.60777 11.2061 8.6061 11.2048C8.60277 11.2022 8.59741 11.198 8.59014 11.1924C8.5756 11.181 8.55343 11.1636 8.5245 11.1407C8.46661 11.0948 8.38185 11.027 8.27722 10.9411C8.06748 10.7691 7.78041 10.5269 7.4712 10.2468C6.82554 9.66201 6.18129 8.99834 5.87685 8.48783L4.15911 9.51221C4.63067 10.303 5.47732 11.1393 6.12855 11.7292C6.46777 12.0364 6.78065 12.3003 7.00874 12.4874C7.12303 12.5812 7.21665 12.6562 7.28242 12.7083C7.31532 12.7343 7.3413 12.7547 7.35945 12.7689C7.36852 12.776 7.37565 12.7815 7.38071 12.7854C7.38324 12.7874 7.38525 12.7889 7.38674 12.7901C7.38748 12.7907 7.38809 12.7911 7.38857 12.7915C7.38881 12.7917 7.38901 12.7918 7.38918 12.792C7.38927 12.792 7.38937 12.7921 7.38941 12.7922C7.38951 12.7922 7.38959 12.7923 7.99976 12ZM5.87685 8.48783C5.66386 8.13068 5.40792 7.75666 5.16862 7.40732C4.92191 7.04715 4.68923 6.70802 4.48927 6.38088C4.28744 6.05069 4.14508 5.77413 4.06554 5.54861C3.98264 5.31355 4.00302 5.23149 4.00061 5.24117L2.05964 4.75887C1.9279 5.28905 2.03508 5.80459 2.1794 6.2138C2.32709 6.63255 2.55236 7.04694 2.78282 7.42397C3.01515 7.80405 3.27943 8.1884 3.51861 8.53757C3.76521 8.89756 3.98409 9.21873 4.15911 9.51221L5.87685 8.48783ZM4.00061 5.24117C4.06898 4.96604 4.17638 4.9622 4.12753 4.97742C4.10906 4.98318 4.10187 4.9773 4.12033 4.98302C4.1427 4.98995 4.21079 5.01811 4.30872 5.11664L5.72723 3.70674C5.14243 3.11837 4.33741 2.81718 3.53256 3.06797C2.74846 3.31229 2.24994 3.993 2.05964 4.75887L4.00061 5.24117ZM4.30872 5.11664C4.58399 5.39359 4.81763 5.84194 5.16521 6.42209C5.30679 6.65841 5.50124 6.97151 5.73327 7.20407C5.85201 7.32309 6.04315 7.4863 6.30884 7.57934C6.61387 7.68615 6.96141 7.67919 7.28348 7.51717L6.38469 5.7305C6.57742 5.63355 6.79545 5.63066 6.96984 5.69172C7.10489 5.73901 7.16425 5.80666 7.14911 5.79149C7.11337 5.75566 7.03163 5.64585 6.88086 5.3942C6.64373 4.9984 6.22798 4.21055 5.72723 3.70674L4.30872 5.11664ZM7.28348 7.51717C8.04879 7.13218 8.22209 6.33712 8.22209 5.7511C8.22209 5.13865 8.04983 4.42177 7.77454 3.66011L5.89362 4.33993C6.13568 5.00965 6.22209 5.47456 6.22209 5.75111C6.22209 6.05408 6.13672 5.85525 6.38469 5.7305L7.28348 7.51717ZM7.77454 3.66011C7.63827 3.28307 7.52474 3.01305 7.46857 2.87137C7.43408 2.78435 7.43558 2.78092 7.44229 2.80723C7.44601 2.82179 7.46425 2.89314 7.46464 2.99494C7.46505 3.09942 7.44674 3.30581 7.30558 3.51769C7.15503 3.74367 6.94849 3.85177 6.80082 3.89826C6.67176 3.9389 6.57011 3.93909 6.54407 3.93901C6.51042 3.9389 6.49188 3.93622 6.50493 3.93766C6.51597 3.93887 6.53272 3.94105 6.5682 3.94587C6.70824 3.9649 6.95748 4.00002 7.29318 4.00002V2.00002C7.10052 2.00002 6.96352 1.98121 6.83758 1.96409C6.79739 1.95863 6.66952 1.93938 6.55019 1.93901C6.50334 1.93887 5.96673 1.92008 5.64113 2.40881C5.48814 2.63846 5.46413 2.86821 5.46466 3.00276C5.46518 3.13464 5.48934 3.24277 5.50444 3.30194C5.53394 3.41749 5.58008 3.53461 5.60935 3.60844C5.68071 3.78845 5.77123 4.00128 5.89362 4.33993L7.77454 3.66011ZM7.29318 4.00002C7.4884 4.00002 7.66486 3.9817 7.82556 3.9493C7.98727 3.91669 8.1229 3.87186 8.23599 3.82557C8.34155 3.78236 8.43292 3.73456 8.45418 3.72395C8.47237 3.71486 8.45613 3.72367 8.428 3.73477C8.40119 3.74534 8.31636 3.77752 8.19688 3.78856C8.13332 3.79443 8.05753 3.79464 7.97354 3.78185C7.88848 3.76889 7.80444 3.74402 7.72438 3.70721C7.56386 3.6334 7.46148 3.53151 7.40563 3.464C7.3525 3.39977 7.32527 3.34706 7.31845 3.33362C7.31018 3.31733 7.30933 3.31316 7.31635 3.33109C7.33153 3.36989 7.35463 3.43667 7.39557 3.56137C7.43285 3.67489 7.48539 3.83773 7.54746 4.02508L9.44598 3.39609C9.33513 3.06152 9.24526 2.77208 9.17887 2.6024C9.15005 2.52872 9.08001 2.35035 8.94666 2.18915C8.86849 2.09467 8.74379 1.97465 8.55988 1.89008C8.36671 1.80127 8.17483 1.78207 8.01283 1.79705C7.76496 1.81995 7.56141 1.93427 7.56047 1.93473C7.5021 1.96389 7.49628 1.96729 7.4783 1.97465C7.46904 1.97844 7.42113 2.00002 7.29318 2.00002V4.00002ZM7.54746 4.02508C7.60299 4.19268 7.63234 4.30216 7.64651 4.36703C7.66473 4.45047 7.64742 4.41364 7.6544 4.31679C7.65754 4.2731 7.67101 4.1211 7.7697 3.94771C7.89108 3.73447 8.13817 3.50798 8.50222 3.46748C8.79928 3.43443 9.01262 3.54641 9.08848 3.59148C9.17892 3.6452 9.23522 3.70055 9.2587 3.72499C9.30799 3.7763 9.32933 3.81439 9.33626 3.82716C9.34394 3.84132 9.36298 3.87835 9.37765 3.94235C9.3844 3.97184 9.43881 4.19664 9.31389 4.46768C9.2404 4.62712 9.11331 4.77978 8.93242 4.88261C8.76125 4.97991 8.59973 5.00002 8.49672 5.00002L8.49672 3.00002C8.34521 3.00002 8.14514 3.02959 7.94406 3.14389C7.73325 3.26372 7.58491 3.44092 7.49752 3.63054C7.41598 3.80745 7.39677 3.9729 7.3953 4.08927C7.39381 4.20786 7.41024 4.31083 7.42818 4.38911C7.46349 4.54317 7.5222 4.67745 7.57823 4.78074C7.6335 4.88264 7.71185 5.00173 7.81646 5.11061C7.86759 5.16384 7.95112 5.24212 8.06707 5.31099C8.16844 5.37121 8.40556 5.49057 8.72338 5.45521C8.89376 5.43625 9.06191 5.37449 9.20937 5.2689C9.35238 5.16649 9.4471 5.04381 9.50785 4.93707C9.61999 4.74007 9.64257 4.55287 9.64923 4.46045C9.66322 4.26616 9.63048 4.07781 9.60046 3.94034C9.56639 3.78431 9.51469 3.60349 9.44598 3.39609L7.54746 4.02508ZM8.49672 5.00002C8.74842 5.00002 9.02179 4.94152 9.27543 4.78248C9.52726 4.62456 9.69463 4.40832 9.80217 4.19621C9.9981 3.80977 10.0328 3.3628 10.0328 3.00002L8.03279 3.00002C8.03279 3.12802 8.02528 3.21593 8.01623 3.27227C8.00672 3.33152 7.99981 3.32836 8.01834 3.2918C8.04037 3.24837 8.09797 3.16013 8.21291 3.08806C8.32966 3.01485 8.43902 3.00002 8.49672 3.00002L8.49672 5.00002ZM10.0328 3.00002C10.0328 2.97608 10.0352 2.9713 10.033 2.98074C10.0305 2.99124 10.0238 3.01361 10.008 3.0416L8.26645 2.05816C8.09294 2.36543 8.03279 2.69374 8.03279 3.00002L10.0328 3.00002ZM10.008 3.0416C9.95406 3.13706 9.88702 3.14851 9.94367 3.1286C10.0176 3.10263 10.1813 3.06942 10.4846 3.06942V1.06942C9.74648 1.06942 8.75146 1.19929 8.26645 2.05816L10.008 3.0416ZM10.4846 3.06942C10.4356 3.06942 10.3437 3.05458 10.248 2.99293C10.1594 2.93581 10.1202 2.87236 10.1114 2.85667C10.1049 2.84481 10.1152 2.85997 10.1307 2.92243C10.1458 2.98273 10.1595 3.06107 10.1731 3.16457C10.1913 3.30355 10.2244 3.67938 10.2751 3.91161C10.3028 4.03835 10.3611 4.2669 10.5083 4.48191C10.6883 4.74489 11.0176 5.00002 11.4785 5.00002V3.00002C11.8152 3.00002 12.051 3.19482 12.1587 3.35222C12.2336 3.46165 12.2409 3.53937 12.2291 3.48512C12.2008 3.35536 12.2012 3.24855 12.1562 2.90487C12.1238 2.65753 12.0608 2.24734 11.8598 1.88549C11.7506 1.6888 11.5839 1.47452 11.3315 1.31183C11.072 1.14459 10.7798 1.06942 10.4846 1.06942V3.06942ZM11.4785 5.00002C11.5335 5.00002 11.7579 5.00724 11.9408 4.97473C12.0589 4.95373 12.229 4.908 12.4021 4.79459C12.5857 4.6743 12.7157 4.51559 12.8012 4.3505C12.9413 4.08021 12.9586 3.79014 12.9662 3.64984C12.9758 3.47343 12.9755 3.24788 12.9755 3.00002L10.9755 3.00002C10.9755 3.27266 10.9751 3.43237 10.9692 3.54105C10.9664 3.59263 10.9635 3.6055 10.9651 3.59638C10.9663 3.58983 10.9783 3.52136 11.0255 3.43029C11.08 3.32514 11.1711 3.2101 11.3062 3.1216C11.4307 3.03999 11.5425 3.01417 11.5908 3.00559C11.6343 2.99787 11.656 2.99931 11.6234 2.99993C11.5884 3.0006 11.5581 3.00002 11.4785 3.00002V5.00002ZM12.9755 3.00002C12.9755 2.90452 12.9809 2.8443 12.9861 2.81C12.9913 2.77547 12.994 2.78179 12.9811 2.8118C12.9664 2.84582 12.9356 2.90055 12.8799 2.95609C12.8239 3.01191 12.766 3.04554 12.7237 3.06362C12.6861 3.07973 12.6683 3.0804 12.6879 3.07734C12.7077 3.07423 12.7465 3.07016 12.8159 3.06791C12.8851 3.06568 12.9668 3.06569 13.0732 3.06667C13.1737 3.06759 13.2999 3.06942 13.4302 3.06942V1.06942C13.2311 1.06942 12.9523 1.06246 12.7513 1.06896C12.5437 1.07567 12.2361 1.0968 11.9365 1.22506C11.5811 1.37722 11.305 1.64835 11.1449 2.01907C11.0067 2.33927 10.9755 2.68718 10.9755 3.00002L12.9755 3.00002ZM13.4302 3.06942C13.384 3.06942 13.2951 3.05546 13.2018 2.99609C13.1152 2.94101 13.0766 2.8797 13.0681 2.86474C13.0618 2.85369 13.0724 2.86936 13.0887 2.93206C13.1045 2.99271 13.1191 3.07134 13.1339 3.17545C13.1541 3.31749 13.1912 3.69157 13.2481 3.93037C13.2792 4.06044 13.3435 4.29018 13.4988 4.50425C13.6879 4.76496 14.0166 5.00002 14.4603 5.00002V3.00002C14.7746 3.00002 15.0052 3.17475 15.1177 3.32988C15.1964 3.43837 15.2057 3.51729 15.1936 3.46636C15.1642 3.34317 15.1624 3.2346 15.114 2.89399C15.079 2.64765 15.012 2.23786 14.8074 1.87742C14.6961 1.68146 14.5279 1.46932 14.2754 1.30866C14.0162 1.14372 13.7249 1.06942 13.4302 1.06942V3.06942ZM14.4603 5.00002C14.6903 5.00002 14.9643 4.94178 15.2111 4.75608C15.4524 4.57446 15.5728 4.34214 15.6326 4.16694C15.6899 3.99939 15.7057 3.84439 15.7119 3.74636C15.7182 3.64556 15.7169 3.54712 15.7163 3.48983C15.7156 3.41801 15.7156 3.38948 15.7167 3.36835C15.7179 3.34493 15.7186 3.38634 15.6967 3.45613C15.673 3.5315 15.6064 3.69096 15.4364 3.82603C15.2571 3.96847 15.0689 4.00002 14.9572 4.00002V2.00002C14.7213 2.00002 14.4406 2.06282 14.1925 2.25995C13.9536 2.4497 13.8419 2.68729 13.7887 2.85641C13.7373 3.01995 13.7242 3.17073 13.7194 3.2645C13.7144 3.36056 13.7159 3.45703 13.7165 3.51021C13.7171 3.57792 13.7168 3.60448 13.7158 3.62087C13.7146 3.64002 13.7147 3.5944 13.74 3.5206C13.7678 3.43915 13.8398 3.28495 14.0085 3.15802C14.1826 3.02701 14.3596 3.00002 14.4603 3.00002V5.00002ZM14.9572 4.00002C15.0418 4.00002 14.9964 4.01051 14.9186 3.97619C14.8128 3.92954 14.7676 3.85939 14.7684 3.86091C14.7818 3.8847 14.8336 3.99592 14.878 4.27725C14.9214 4.55224 14.9512 4.94522 14.9512 5.50002L16.9512 5.50002C16.9512 4.31952 16.8369 3.46033 16.5127 2.88243C16.3272 2.55173 16.0645 2.29576 15.7258 2.14634C15.4151 2.00925 15.1211 2.00002 14.9572 2.00002V4.00002ZM14.9512 5.50002C14.9512 6.10636 14.9693 6.56924 14.9834 6.92798C14.9982 7.30314 15.0054 7.51277 14.9955 7.67785C14.9873 7.81417 14.9687 7.88263 14.9398 7.95002C14.9029 8.03643 14.8294 8.16498 14.6525 8.40236L16.256 9.59768C16.467 9.31456 16.6497 9.03813 16.7786 8.73668C16.9157 8.41621 16.9729 8.11391 16.9919 7.79814C17.0092 7.51113 16.9952 7.18734 16.9819 6.84932C16.9679 6.49488 16.9512 6.06482 16.9512 5.50002L14.9512 5.50002ZM14.6525 8.40236C14.2644 8.92287 13.8917 9.42287 13.616 9.79274C13.4781 9.97768 13.3645 10.1301 13.2854 10.2363C13.2458 10.2893 13.2149 10.3309 13.1938 10.3591C13.1833 10.3733 13.1752 10.3841 13.1698 10.3913C13.1671 10.395 13.165 10.3977 13.1636 10.3996C13.1629 10.4005 13.1624 10.4012 13.1621 10.4017C13.1619 10.4019 13.1618 10.4021 13.1617 10.4022C13.1616 10.4022 13.1616 10.4023 13.1616 10.4023C13.1616 10.4023 13.1616 10.4023 13.1616 10.4024C13.1616 10.4024 13.1616 10.4024 13.9633 11C14.7651 11.5977 14.7651 11.5977 14.7651 11.5977C14.7651 11.5977 14.7651 11.5977 14.7651 11.5976C14.7651 11.5976 14.7652 11.5976 14.7652 11.5975C14.7653 11.5974 14.7654 11.5972 14.7656 11.597C14.7659 11.5965 14.7664 11.5958 14.7671 11.5949C14.7685 11.5931 14.7706 11.5903 14.7733 11.5867C14.7787 11.5794 14.7868 11.5686 14.7973 11.5544C14.8184 11.5262 14.8493 11.4847 14.8889 11.4316C14.968 11.3254 15.0816 11.173 15.2195 10.9881C15.4952 10.6182 15.8679 10.1182 16.256 9.59768L14.6525 8.40236ZM13.9633 11C12.9633 11 12.9633 10.9998 12.9633 10.9995C12.9633 10.9994 12.9633 10.9992 12.9633 10.999C12.9633 10.9987 12.9633 10.9984 12.9633 10.9981C12.9633 10.9975 12.9633 10.997 12.9633 10.9965C12.9633 10.9956 12.9633 10.9948 12.9633 10.9943C12.9633 10.9932 12.9633 10.993 12.9633 10.9935C12.9633 10.9945 12.9632 10.9985 12.963 11.0049C12.9625 11.0181 12.9614 11.0401 12.9589 11.0678C12.9536 11.1277 12.944 11.1916 12.9304 11.2425C12.9134 11.3064 12.9088 11.2801 12.9574 11.2192C12.9871 11.1822 13.0434 11.1241 13.1338 11.0757C13.2292 11.0245 13.3333 11 13.4302 11V13C13.9292 13 14.297 12.7464 14.5194 12.4683C14.718 12.22 14.8133 11.9437 14.8629 11.7576C14.916 11.5585 14.9397 11.3724 14.9511 11.2448C14.9569 11.1787 14.96 11.1226 14.9615 11.081C14.9623 11.0602 14.9628 11.0426 14.963 11.029C14.9631 11.0222 14.9632 11.0163 14.9633 11.0115C14.9633 11.0091 14.9633 11.0069 14.9633 11.005C14.9633 11.004 14.9633 11.0031 14.9633 11.0023C14.9633 11.0019 14.9633 11.0015 14.9633 11.0011C14.9633 11.0009 14.9633 11.0006 14.9633 11.0006C14.9633 11.0003 14.9633 11 13.9633 11ZM13.4302 11C13.6321 11 13.7383 11.1002 13.7147 11.0802C13.6785 11.0496 13.6349 10.9998 13.5018 10.8459C13.3985 10.7265 13.2228 10.5229 13.0005 10.3562C12.7609 10.1766 12.4167 10 11.9755 10V12C11.8576 12 11.7902 11.9485 11.8008 11.9564C11.8285 11.9772 11.8761 12.0235 11.9891 12.1542C12.0722 12.2503 12.2377 12.4504 12.4232 12.6073C12.6213 12.7748 12.9618 13 13.4302 13V11ZM11.9755 10C11.1149 10 10.6053 10.645 10.4054 10.9431C10.2824 11.1265 10.1933 11.3029 10.1357 11.4296C10.1062 11.4943 10.0834 11.5496 10.0672 11.5909C10.059 11.6117 10.0524 11.6291 10.0474 11.6428C10.0448 11.6496 10.0427 11.6555 10.041 11.6604C10.0401 11.6628 10.0393 11.665 10.0386 11.6669C10.0383 11.6679 10.038 11.6688 10.0377 11.6697C10.0375 11.6701 10.0374 11.6705 10.0373 11.6709C10.0372 11.6711 10.0371 11.6713 10.0371 11.6714C10.037 11.6717 10.0369 11.672 10.9815 12C11.9262 12.3281 11.9261 12.3283 11.926 12.3286C11.926 12.3287 11.9259 12.3289 11.9258 12.3291C11.9257 12.3294 11.9256 12.3297 11.9255 12.33C11.9253 12.3306 11.9251 12.3312 11.9249 12.3316C11.9246 12.3326 11.9243 12.3334 11.9241 12.3339C11.9237 12.335 11.9236 12.3353 11.9238 12.3348C11.9242 12.3338 11.9257 12.3298 11.9283 12.3232C11.9335 12.3098 11.9429 12.287 11.9561 12.2579C11.9838 12.1971 12.0219 12.1235 12.0665 12.057C12.0883 12.0245 12.1082 11.9988 12.1252 11.9796C12.1425 11.9602 12.152 11.9528 12.152 11.9528C12.1505 11.9539 12.0865 12 11.9755 12V10ZM10.9815 11H7.99976V13H10.9815V11ZM14.9633 10V6.00002H12.9633V10H14.9633ZM13.9633 5.00002H12.9694V7.00002H13.9633V5.00002ZM11.9694 6.00002V10H13.9694V6.00002H11.9694ZM12.9694 11H13.9633V9.00002H12.9694V11ZM9.98153 9.00002C9.98153 9.31595 10.088 9.70327 10.2084 9.98941C10.2725 10.1419 10.37 10.3375 10.5129 10.5131C10.6268 10.6532 10.948 11 11.4785 11V9.00002C11.6815 9.00002 11.8341 9.07082 11.9218 9.12724C12.0053 9.18096 12.0504 9.23385 12.064 9.25061C12.0888 9.28102 12.0786 9.27742 12.0518 9.2138C12.029 9.15941 12.0079 9.0943 11.9936 9.03521C11.9867 9.00661 11.9829 8.98557 11.9811 8.97359C11.9788 8.9583 11.9815 8.96916 11.9815 9.00002H9.98153ZM11.4785 11C12.0006 11 12.3216 10.6668 12.444 10.518C12.5904 10.3402 12.6887 10.1421 12.7528 9.98832C12.8744 9.69695 12.9755 9.31213 12.9755 9.00002H10.9755C10.9755 8.95995 10.9797 8.97275 10.9631 9.04298C10.9492 9.10203 10.9289 9.16586 10.907 9.21828C10.8812 9.2801 10.8724 9.28029 10.8999 9.24698C10.9151 9.22844 10.9616 9.17513 11.0462 9.1219C11.1356 9.06563 11.2843 9.00002 11.4785 9.00002V11ZM12.9755 9.00002V7.00002H10.9755V9.00002H12.9755ZM12.9755 7.00002C12.9755 6.68409 12.869 6.29677 12.7486 6.01064C12.6845 5.85812 12.587 5.6625 12.4441 5.48693C12.3302 5.34689 12.009 5.00002 11.4785 5.00002V7.00002C11.2755 7.00002 11.1229 6.92922 11.0352 6.8728C10.9517 6.81908 10.9066 6.76619 10.893 6.74943C10.8682 6.71903 10.8784 6.72262 10.9052 6.78624C10.928 6.84063 10.9491 6.90575 10.9634 6.96483C10.9703 6.99343 10.9741 7.01447 10.9759 7.02645C10.9782 7.04174 10.9755 7.03088 10.9755 7.00002H12.9755ZM11.4785 5.00002C10.9564 5.00002 10.6354 5.33327 10.513 5.48202C10.3666 5.65979 10.2683 5.85796 10.2042 6.01172C10.0826 6.30309 9.98153 6.68792 9.98153 7.00002H11.9815C11.9815 7.04009 11.9773 7.02729 11.9939 6.95706C12.0078 6.89801 12.0281 6.83418 12.05 6.78176C12.0758 6.71995 12.0846 6.71975 12.0571 6.75306C12.0419 6.7716 11.9954 6.82491 11.9108 6.87814C11.8214 6.93441 11.6726 7.00002 11.4785 7.00002V5.00002ZM9.98153 7.00002V9.00002H11.9815V7.00002H9.98153ZM7.99368 9.00002C7.99368 9.31595 8.10012 9.70327 8.22051 9.98941C8.28467 10.1419 8.38211 10.3375 8.52501 10.5131C8.63899 10.6532 8.96015 11 9.49064 11V9.00002C9.69365 9.00002 9.84627 9.07082 9.93395 9.12724C10.0174 9.18096 10.0625 9.23385 10.0762 9.25061C10.1009 9.28102 10.0908 9.27742 10.064 9.2138C10.0411 9.15941 10.0201 9.0943 10.0058 9.03521C9.99885 9.00661 9.995 8.98557 9.99322 8.97359C9.99094 8.9583 9.99368 8.96916 9.99368 9.00002H7.99368ZM9.49064 11C10.0127 11 10.3337 10.6668 10.4562 10.518C10.6025 10.3402 10.7008 10.1421 10.765 9.98832C10.8865 9.69695 10.9876 9.31213 10.9876 9.00002H8.98761C8.98761 8.95995 8.9918 8.97275 8.97524 9.04298C8.96132 9.10203 8.94101 9.16586 8.91914 9.21828C8.89336 9.2801 8.88458 9.28029 8.912 9.24698C8.92726 9.22844 8.97371 9.17513 9.05834 9.1219C9.14778 9.06563 9.29649 9.00002 9.49064 9.00002V11ZM10.9876 9.00002V7.00002H8.98761V9.00002H10.9876ZM10.9876 7.00002C10.9876 6.68409 10.8812 6.29677 10.7608 6.01064C10.6966 5.85812 10.5992 5.6625 10.4563 5.48693C10.3423 5.34689 10.0211 5.00002 9.49064 5.00002V7.00002C9.28764 7.00002 9.13502 6.92922 9.04734 6.8728C8.96386 6.81908 8.91877 6.76619 8.90512 6.74943C8.88038 6.71903 8.89053 6.72262 8.9173 6.78624C8.94018 6.84063 8.96121 6.90575 8.97551 6.96483C8.98244 6.99343 8.98629 7.01447 8.98807 7.02645C8.99035 7.04174 8.98761 7.03088 8.98761 7.00002H10.9876ZM9.49064 5.00002C8.96859 5.00002 8.64755 5.33327 8.52512 5.48202C8.37879 5.65979 8.28048 5.85796 8.21633 6.01172C8.09477 6.30309 7.99368 6.68792 7.99368 7.00002H9.99368C9.99368 7.04009 9.98949 7.02729 10.006 6.95706C10.02 6.89801 10.0403 6.83418 10.0621 6.78176C10.0879 6.71995 10.0967 6.71975 10.0693 6.75306C10.054 6.7716 10.0076 6.82491 9.92295 6.87814C9.83351 6.93441 9.6848 7.00002 9.49064 7.00002V5.00002ZM7.99368 7.00002V9.00002H9.99368V7.00002H7.99368Z" fill="black" mask="url(#path-1-outside-1_0_122)"/>
</g>
<defs>
<filter id="filter0_d_0_122" x="-6.10352e-05" y="0.0661621" width="19" height="15.9338" filterUnits="userSpaceOnUse" color-interpolation-filters="sRGB">
<feFlood flood-opacity="0" result="BackgroundImageFix"/>
<feColorMatrix in="SourceAlpha" type="matrix" values="0 0 0 0 0 0 0 0 0 0 0 0 0 0 0 0 0 0 127 0" result="hardAlpha"/>
<feOffset dy="1"/>
<feGaussianBlur stdDeviation="1"/>
<feColorMatrix type="matrix" values="0 0 0 0 0 0 0 0 0 0 0 0 0 0 0 0 0 0 1 0"/>
<feBlend mode="normal" in2="BackgroundImageFix" result="effect1_dropShadow_0_122"/>
<feBlend mode="normal" in="SourceGraphic" in2="effect1_dropShadow_0_122" result="shape"/>
</filter>
</defs>
</svg>
